# xmcd
# Track frame offsets:
# 182
# 17022
# 33317
# 47977
# 65085
# 78045
# 98737
# 118052
# 133855
# 148312
# 164850
# 179380
#
# Disc length: 2617 seconds
# Revision: 0
# Processed by: cddbd v1.5.2PL0 Copyright (c) Steve Scherf et al.
# Submitted via: VisiTrax 2.10.3.257 - For more info visit www.synapsa.com
#
DISCID=af0a370c
DTITLE=Caballo Dorado - Cabalgando
DYEAR=1999
DGENRE=
TTITLE0=No Rompoas mi Corazon
TTITLE1=Hoy Hare
TTITLE2=Mucho Mejor
TTITLE3=Carretera
TTITLE4=Arriba y Abajo
TTITLE5=Un Chico Loco
TTITLE6=Payaso de Rodeo
TTITLE7=Chiquilla Escandalosa
TTITLE8=Siempre te Amare
TTITLE9=Reina Morena
TTITLE10=Noches de Rock and Roll
TTITLE11=No quiero que me Lastimes
EXTD=Country en Español
EXTT0=
EXTT1=
EXTT2=
EXTT3=
EXTT4=
EXTT5=
EXTT6=
EXTT7=
EXTT8=
EXTT9=
EXTT10=
EXTT11=
PLAYORDER=
